<svg xmlns="http://www.w3.org/2000/svg" width="43.985" height="34.062" viewBox="0 0 43.985 34.062"><defs><style>.a{fill:#7b8190;stroke:rgba(0,0,0,0);}</style></defs><path class="a" d="M46.222,20c-3.576,0-6.024,2.048-8.5,4.589a12.207,12.207,0,0,0-7.305-2.82,9.983,9.983,0,0,0-6.528,1.8l-.805-.827-2.152,2.19L38.8,42.781l2.158-2.158-.805-.805a10.011,10.011,0,0,0,1.8-6.528,11.883,11.883,0,0,0-2.19-6.336c2.119-2.19,3.976-3.675,6.456-3.675h7.3V20ZM38.8,41.231l-16.314-16.3.608-.608L39.4,40.629Zm.548-2.19L24.679,24.354a8.981,8.981,0,0,1,5.69-1.484,11.051,11.051,0,0,1,7.261,3.11l.088.088a11.046,11.046,0,0,1,3.138,7.278,8.981,8.981,0,0,1-1.5,5.69ZM52.416,22.19H46.222c-2.837,0-4.846,1.572-7.119,3.833l-.6-.646c2.311-2.349,4.545-4.3,7.667-4.3h6.243ZM26.759,39.03a2.234,2.234,0,1,0-1.577-.652A2.234,2.234,0,0,0,26.759,39.03Zm-.805-3.039a1.134,1.134,0,1,1-.335.805,1.139,1.139,0,0,1,.335-.805Zm-2.048,6.823a2.234,2.234,0,1,0-1.583.657A2.234,2.234,0,0,0,23.906,42.814Zm-2.388-2.388a1.139,1.139,0,1,1,1.61,1.61,1.166,1.166,0,0,1-1.61,0A1.139,1.139,0,0,1,21.519,40.426ZM16.305,44.1a2.218,2.218,0,1,0,1.58-.661A2.234,2.234,0,0,0,16.305,44.1Zm2.388,2.388a1.186,1.186,0,1,0,0-.005Zm2.968-12.552a2.212,2.212,0,1,1-.005-.005Zm-.805-3.039a.473.473,0,1,1-.005-.005ZM18.8,37.71a2.24,2.24,0,1,0-1.583.652A2.24,2.24,0,0,0,18.8,37.71Zm-2.382-2.377a1.139,1.139,0,1,1,0,1.61A1.139,1.139,0,0,1,16.415,35.333Zm-3.631,3.012a1.316,1.316,0,1,0-.005-.011Zm.805,3.012a1.166,1.166,0,0,1-1.61,0,1.139,1.139,0,1,1,1.61,0Zm16.7-1.051a1.769,1.769,0,1,1-.005.011Zm2.388,2.388a6.5,6.5,0,1,0-.005.011Zm-5.252,1.4a2.234,2.234,0,1,0,1.583.657,2.234,2.234,0,0,0-1.583-.657Zm.805,3.039a1.166,1.166,0,0,1-1.61,0,1.139,1.139,0,1,1,1.61,0Zm-5.246,1.4a1.3,1.3,0,1,1,.005.011Zm.805,3.039a1.166,1.166,0,0,1-1.61,0,1.139,1.139,0,1,1,1.61,0Z" transform="translate(-10.026 -19.5)"/></svg>